<svg width="179" height="204" viewBox="0 0 179 204" fill="none" xmlns="http://www.w3.org/2000/svg">
<path d="M127.872 38.932L130.819 34.3729C131.767 32.9066 133.725 32.4893 135.189 33.4355C136.654 34.3832 137.072 36.3388 136.126 37.805L133.179 42.3641C132.573 43.2985 131.558 43.8083 130.524 43.8083C129.936 43.8083 129.341 43.6452 128.811 43.3029C127.346 42.3538 126.926 40.3968 127.872 38.932ZM146.42 137.699C145.873 138.644 132.788 160.849 111.271 165.34C108.495 165.918 105.73 166.172 103.018 166.172C87.2456 166.172 73.2645 157.631 69.1888 154.896L59.0201 157.019L56.4813 160.943C55.8774 161.879 54.8622 162.387 53.8263 162.387C53.2386 162.387 52.6436 162.224 52.1132 161.882C50.6469 160.934 50.2281 158.977 51.1758 157.513L67.411 132.41L63.3751 120.297C57.6832 117.558 35.3814 105.657 28.2527 84.2589C20.2321 60.1792 34.8056 34.1812 35.43 33.0867C36.2292 31.6865 37.9556 31.1135 39.4323 31.7541C40.5886 32.2566 67.8432 44.3205 75.8652 68.4002C82.9925 89.8012 72.2832 112.701 69.371 118.305L71.807 125.619L83.874 106.962C82.4209 100.067 77.0788 69.0483 92.5456 45.1341C109.677 18.6464 145.237 11.8644 146.742 11.5895C148.412 11.2927 149.982 12.3212 150.378 13.9432C150.744 15.4286 159.142 50.6435 142.012 77.129C126.547 101.038 96.0684 108.888 89.1815 110.391L63.8485 149.558L67.8949 148.713C71.0112 143.833 83.4001 126.247 102.287 122.303C123.811 117.828 144.681 132.929 145.557 133.574C146.856 134.53 147.228 136.309 146.42 137.704L146.42 137.699ZM89.0073 99.0222L121.818 48.29C122.769 46.8223 124.723 46.4065 126.188 47.3526C127.653 48.3003 128.072 50.2559 127.125 51.7206L94.3127 102.453C105.344 99.0632 125.639 90.8075 136.706 73.6906C149.613 53.7367 146.425 27.3517 144.856 18.4938C136.129 20.7065 110.731 28.6463 97.8513 48.5593C86.7804 65.6776 87.574 87.5713 89.0063 99.0244L89.0073 99.0222ZM69.8703 70.394C64.1095 53.0981 46.3536 42.4002 39.5803 38.8564C36.2907 45.7647 28.5037 65.0104 34.2514 82.2615C39.0617 96.7015 52.2777 106.553 60.4378 111.47L44.7137 64.2661C44.1628 62.6102 45.0575 60.8222 46.7134 60.2697C48.3722 59.7188 50.1588 60.615 50.7097 62.2694L66.4338 109.473C70.0129 100.643 74.6822 84.8343 69.8703 70.394ZM139.326 137.025C133.496 133.43 118.351 125.394 103.582 128.484C91.5108 131.004 82.2148 140.363 77.0799 146.79L117.702 138.311C119.421 137.957 121.084 139.053 121.44 140.758C121.795 142.467 120.701 144.141 118.993 144.498L78.3865 152.974C85.6784 156.807 97.9553 161.669 109.981 159.152C124.754 156.068 135.421 142.654 139.325 137.025L139.326 137.025ZM76.6745 14.2944H81.4934V19.1123C81.4934 20.8577 82.9068 22.2711 84.6523 22.2711C86.3978 22.2711 87.8112 20.8577 87.8112 19.1123V14.2944H92.629C94.3745 14.2944 95.7879 12.881 95.7879 11.1356C95.7879 9.39011 94.3745 7.9767 92.629 7.9767H87.8112V3.15887C87.8112 1.41341 86.3978 0 84.6523 0C82.9068 0 81.4934 1.41341 81.4934 3.15887L81.492 7.9767H76.673C74.9275 7.9767 73.5141 9.39011 73.5141 11.1356C73.5141 12.881 74.929 14.2944 76.6745 14.2944ZM173.332 102.922H168.514V98.1026C168.514 96.3586 167.099 94.9437 165.355 94.9437C163.611 94.9437 162.196 96.3586 162.196 98.1026V102.922H157.378C155.634 102.922 154.22 104.336 154.22 106.08C154.22 107.824 155.634 109.239 157.378 109.239H162.196V114.057C162.196 115.801 163.611 117.216 165.355 117.216C167.099 117.216 168.514 115.801 168.514 114.057V109.239H173.332C175.076 109.239 176.491 107.824 176.491 106.08C176.491 104.336 175.076 102.922 173.332 102.922ZM72.5446 189.706H67.7268V184.888C67.7268 183.144 66.3133 181.729 64.5679 181.729C62.8224 181.729 61.409 183.144 61.409 184.888V189.706H56.5912C54.8457 189.706 53.4323 191.12 53.4323 192.864C53.4323 194.608 54.8457 196.023 56.5912 196.023H61.409V200.841C61.409 202.585 62.8224 204 64.5679 204C66.3133 204 67.7268 202.585 67.7268 200.841V196.023H72.5446C74.29 196.023 75.7035 194.608 75.7035 192.864C75.7035 191.12 74.29 189.706 72.5446 189.706ZM5.58626 46.6076C2.50084 46.6076 0 49.1083 0 52.1939C0 55.2795 2.50065 57.7801 5.58626 57.7801C8.67186 57.7801 11.1725 55.2795 11.1725 52.1939C11.1725 49.1083 8.67186 46.6076 5.58626 46.6076ZM148.756 168.77C145.67 168.77 143.169 171.271 143.169 174.357C143.169 177.442 145.67 179.943 148.756 179.943C151.841 179.943 154.342 177.442 154.342 174.357C154.343 171.273 151.841 168.77 148.756 168.77ZM173.33 27.7034C170.245 27.7034 167.744 30.2041 167.744 33.2897C167.744 36.3753 170.245 38.8759 173.33 38.8759C176.416 38.8759 178.917 36.3753 178.917 33.2897C178.917 30.2041 176.416 27.7034 173.33 27.7034ZM19.1442 128.096C16.0588 128.096 13.5579 130.596 13.5579 133.682C13.5579 136.768 16.0586 139.268 19.1442 139.268C22.2298 139.268 24.7304 136.768 24.7304 133.682C24.7304 130.596 22.2298 128.096 19.1442 128.096Z" fill="white" fill-opacity="0.5"/>
</svg>
