<svg width="312" height="365" viewBox="0 0 312 365" fill="none" xmlns="http://www.w3.org/2000/svg">
<path d="M85.6697 54.6374C113.372 33.6445 175.697 -11.6883 204.582 3.51955C235.178 19.6277 181.137 104.601 204.582 129.472C225.211 151.356 291.557 137.145 305.892 163.619C319.829 189.36 307.427 225.119 291.091 251.677C275.882 276.403 243.324 301.763 219.52 318.882C197.404 334.787 181.43 339.162 156.123 348.741C126.199 360.068 93.0231 370.961 64.1199 361.09C34.4937 350.973 9.07825 326.148 1.77379 296.029C-5.24528 267.088 19.1685 238.685 27.2161 208.926C33.4259 185.964 35.1813 163.513 43.6683 141.111C55.1872 110.707 59.1854 74.707 85.6697 54.6374Z" fill="#D4A476"/>
</svg>
