<svg width="316" height="317" viewBox="0 0 316 317" fill="none" xmlns="http://www.w3.org/2000/svg">
<path d="M8.94816 200.493C-4.58502 170.982 -2.86545 129.523 19.4647 105.012C43.1168 79.0504 79.3975 116.379 109.828 98.5981C136.603 82.9537 124.348 24.1629 166.646 4.42403C206.123 -8.73522 230.099 18.3323 252.008 38.1274C272.404 56.5565 272.5 87.1323 283.225 112.335C293.189 135.75 309.885 155.686 312.82 181.026C316.29 210.988 318.501 243.925 301.409 269.353C283.889 295.417 253 315.053 221.545 316.817C191.319 318.513 164.477 301.946 137.304 289.38C116.336 279.684 85.7016 267.278 65.8678 255.542C38.9485 239.614 21.8861 228.706 8.94816 200.493Z" fill="#D4A476"/>
</svg>
